# xmcd
#
# Track frame offsets:
#	150
#	33547
#	56115
#	73292
#	99255
#	118417
#	130397
#	164325
#	184302
#	208400
#	223267
#	245215
#	268935
#	288050
#
# Disc length: 4196 seconds
#
# Revision: 1
# Processed by: cddbd v1.5.1PL2 Copyright (c) Steve Scherf et al.
# Submitted via: audiograbber 1.83.01
#
DISCID=f310620e
DTITLE=Varios artistas - Lo mejor de Fania CD 2
DYEAR=2001
DGENRE=Salsa
TTITLE0=Pedro Navaja - Rubén Blades
TTITLE1=Nabucodonosor - Richie Ray and Bobby Cruz
TTITLE2=Cucala - Celia Cruz
TTITLE3=Bilongo - Fania All Stars
TTITLE4=Indestructible - Ray Barretto
TTITLE5=Mi socio - Tito Puente y La Lupe
TTITLE6=Palo pa rumba - Eddie Palmieri
TTITLE7=Noé - Rubén Blades
TTITLE8=Son del callejón - Pete El Conde Rodríguez and Johnny Pacheco
TTITLE9=Si si no no - Machito y sus Afrocubanos and Graciela Pérez
TTITLE10=Dime que te pasa - Fania All Stars con Adalberto Santiago
TTITLE11=Berimbao - Celia Cruz
TTITLE12=Usted abusó - Willie Colón
TTITLE13=1983 - Eddie Palmieri
EXTD=
EXTT0=
EXTT1=
EXTT2=
EXTT3=
EXTT4=
EXTT5=
EXTT6=
EXTT7=
EXTT8=
EXTT9=
EXTT10=
EXTT11=
EXTT12=
EXTT13=
PLAYORDER=
